<svg width="36" height="26" viewBox="0 0 36 26" fill="none" xmlns="http://www.w3.org/2000/svg">
<path d="M25.5116 2.54213C25.6456 2.66716 25.7783 2.7934 25.911 2.91986C25.9618 2.96696 26.0126 3.01406 26.0649 3.06259C27.6137 4.54089 28.4685 6.66838 28.7591 8.75504C28.7591 8.82381 28.7591 8.89259 28.7591 8.96344C28.8386 8.97123 28.918 8.97902 28.9998 8.98705C30.5671 9.18507 31.9466 10.1308 33.0661 11.1864C33.1174 11.2324 33.1687 11.2784 33.2215 11.3258C34.6055 12.6189 35.5612 14.7344 35.6462 16.6148C35.7171 19.2165 35.1009 21.4451 33.2881 23.3886C32.6524 24.0567 31.9846 24.5504 31.1905 25.0102C31.0876 25.0705 31.0876 25.0705 30.9826 25.132C30.5608 25.3608 30.1236 25.5124 29.6665 25.6528C29.6111 25.6699 29.5556 25.687 29.4985 25.7047C28.4238 26.0181 27.3693 26.0012 26.2592 25.9963C26.1042 25.9961 25.9492 25.996 25.7943 25.9959C25.2239 25.9951 24.6535 25.9932 24.0832 25.9914C22.8066 25.9885 21.53 25.9857 20.2148 25.9827C20.2148 23.4152 20.2148 20.8478 20.2148 18.2025C21.5214 18.1681 21.5214 18.1681 22.8545 18.133C23.2655 17.9706 23.2655 17.9706 23.4102 17.7162C23.4809 17.1974 23.3044 16.9324 23.0021 16.5223C22.9609 16.4642 22.9196 16.4062 22.8772 16.3465C22.5901 15.9454 22.2914 15.5539 21.9872 15.1658C21.7484 14.8577 21.5269 14.5374 21.3033 14.2183C20.9375 13.6964 20.5641 13.1803 20.1901 12.6643C20.0756 12.5059 19.9614 12.3472 19.8473 12.1885C19.4718 11.6661 19.0936 11.1458 18.7082 10.6306C18.6731 10.5836 18.638 10.5366 18.6018 10.4881C18.3627 10.1394 18.3627 10.1394 18.0049 9.95334C17.7518 9.93349 17.6532 9.94465 17.4361 10.0749C17.1212 10.3996 16.8597 10.7709 16.5982 11.1386C16.5185 11.2498 16.4388 11.3609 16.3591 11.4721C16.3188 11.5285 16.2785 11.5849 16.2369 11.643C16.0471 11.9082 15.8558 12.1724 15.6647 12.4368C15.5894 12.541 15.5142 12.6452 15.4389 12.7494C14.0843 14.625 14.0843 14.625 13.9713 14.7815C13.8966 14.8849 13.8219 14.9884 13.7472 15.0919C13.5509 15.3639 13.3541 15.6357 13.1569 15.9071C13.1159 15.9636 13.0749 16.02 13.0327 16.0782C12.9544 16.1861 12.876 16.2939 12.7974 16.4016C12.3842 16.9378 12.3842 16.9378 12.266 17.5819C12.3172 17.8146 12.46 17.9232 12.6429 18.0635C13.5446 18.3641 14.5409 18.1775 15.491 18.2025C15.491 20.77 15.491 23.3374 15.491 25.9827C13.3399 25.9883 13.3399 25.9883 12.273 25.9897C11.6973 25.9905 11.1217 25.9915 10.546 25.9932C10.09 25.9946 9.634 25.9955 9.17801 25.9958C8.93691 25.996 8.69582 25.9964 8.45472 25.9974C8.18456 25.9986 7.91441 25.9986 7.64426 25.9985C7.56566 25.999 7.48706 25.9995 7.40608 26C5.75841 25.9958 4.17647 25.4551 2.9176 24.385C2.88224 24.355 2.84688 24.325 2.81045 24.294C2.04229 23.6349 1.47753 22.9006 0.972539 22.0231C0.935288 21.9599 0.898037 21.8967 0.859656 21.8316C0.0132771 20.2843 -0.215215 18.192 0.205695 16.4867C0.80992 14.5673 1.8851 13.1426 3.5428 12.02C3.52776 11.9593 3.51271 11.8985 3.49721 11.836C3.14568 10.2834 3.31414 8.86013 4.168 7.50465C4.84629 6.47064 6.01533 5.71222 7.221 5.45511C8.17154 5.30054 9.077 5.36443 10.0032 5.62905C10.0197 5.57111 10.0363 5.51318 10.0534 5.45349C10.1564 5.17353 10.2917 4.93835 10.4504 4.68691C10.4964 4.61393 10.4964 4.61393 10.5434 4.53948C10.8561 4.05479 11.2102 3.62102 11.6009 3.19772C11.6518 3.14175 11.6518 3.14175 11.7037 3.08464C13.3681 1.26994 15.7545 0.168768 18.2073 0.0109494C20.9085 -0.105546 23.4999 0.705497 25.5116 2.54213Z" fill="black"/>
</svg>
