<svg width="26" height="21" viewBox="0 0 26 21" fill="none" xmlns="http://www.w3.org/2000/svg">
<path d="M15.4623 0.194417C15.9535 0.589181 16.3874 1.06271 16.8323 1.50737C16.9207 1.59551 17.0091 1.68364 17.0975 1.77177C17.3363 2.01 17.5751 2.2484 17.8137 2.48684C17.9629 2.63591 18.1122 2.78493 18.2614 2.93395C18.6753 3.34722 19.0891 3.76053 19.5027 4.17401C19.5291 4.20038 19.5555 4.22675 19.5827 4.25392C19.6091 4.28036 19.6356 4.30679 19.6628 4.33402C19.7164 4.38757 19.7699 4.44112 19.8235 4.49467C19.8501 4.52123 19.8767 4.5478 19.904 4.57516C20.3354 5.00637 20.7672 5.43724 21.199 5.86797C21.6433 6.31103 22.0872 6.75437 22.5309 7.19799C22.7797 7.44674 23.0286 7.69536 23.2778 7.94369C23.5119 8.17696 23.7457 8.41062 23.9791 8.64453C24.0649 8.73028 24.1507 8.81591 24.2367 8.9014C24.354 9.01813 24.4709 9.1353 24.5877 9.2526C24.6218 9.28629 24.6559 9.31999 24.691 9.35471C25.0379 9.70519 25.2011 10.0073 25.2076 10.505C25.1951 11.4368 24.3517 12.0075 23.7349 12.6247C23.6468 12.7131 23.5586 12.8015 23.4705 12.8898C23.2323 13.1287 22.9939 13.3674 22.7554 13.6061C22.6064 13.7553 22.4573 13.9045 22.3083 14.0538C21.8951 14.4676 21.4818 14.8815 21.0683 15.2951C21.0419 15.3215 21.0155 15.3479 20.9884 15.3751C20.9619 15.4015 20.9355 15.4279 20.9083 15.4552C20.8547 15.5088 20.8012 15.5623 20.7476 15.6159C20.721 15.6425 20.6945 15.669 20.6671 15.6964C20.2359 16.1278 19.805 16.5596 19.3743 16.9914C18.9313 17.4357 18.4879 17.8796 18.0443 18.3233C17.7955 18.5721 17.5469 18.821 17.2986 19.0702C17.0653 19.3043 16.8317 19.538 16.5978 19.7715C16.512 19.8572 16.4264 19.9431 16.3409 20.0291C16.2242 20.1464 16.107 20.2633 15.9897 20.3801C15.956 20.4142 15.9223 20.4483 15.8876 20.4834C15.5371 20.8303 15.2349 20.9935 14.7372 21C14.148 20.9909 13.8842 20.777 13.4759 20.3756C13.3983 20.3001 13.319 20.2267 13.2391 20.1536C12.8257 19.7686 12.5055 19.3821 12.4822 18.791C12.5217 18.055 13.0653 17.6258 13.5575 17.1356C13.6074 17.0857 13.6573 17.0358 13.7073 16.9858C13.8417 16.8514 13.9763 16.7171 14.1109 16.5828C14.252 16.442 14.3929 16.3011 14.5339 16.1602C14.8003 15.894 15.0668 15.6278 15.3334 15.3617C15.6372 15.0585 15.9407 14.7552 16.2443 14.4519C16.8683 13.8284 17.4925 13.2051 18.1168 12.5819C18.0638 12.5818 18.0638 12.5818 18.0098 12.5817C15.9184 12.5777 13.827 12.5733 11.7356 12.5681C11.4844 12.5675 11.2332 12.5669 10.9821 12.5663C10.9071 12.5661 10.9071 12.5661 10.8306 12.5659C10.0211 12.564 9.21166 12.5624 8.40221 12.5609C7.57155 12.5594 6.74089 12.5575 5.91022 12.5552C5.39772 12.5539 4.88522 12.5528 4.37272 12.5521C4.02121 12.5515 3.6697 12.5507 3.31819 12.5495C3.11543 12.5489 2.91268 12.5484 2.70992 12.5483C2.52409 12.5482 2.33827 12.5477 2.15244 12.5468C2.05379 12.5465 1.95515 12.5466 1.8565 12.5467C1.31503 12.5434 0.836904 12.5154 0.420344 12.1395C0.130736 11.7873 0.0118868 11.4761 0.00884848 11.0252C0.00840467 10.9842 0.00796011 10.9431 0.00750286 10.9009C0.00679132 10.8141 0.0063542 10.7274 0.00617223 10.6407C0.00558975 10.5094 0.00317274 10.3782 0.0006877 10.2469C-0.00416707 9.7413 0.00690266 9.32722 0.370059 8.93864C0.851123 8.47682 1.39935 8.4946 2.0302 8.49413C2.09944 8.4939 2.16867 8.49366 2.23791 8.49339C2.42769 8.49273 2.61747 8.49236 2.80725 8.49204C3.01208 8.49165 3.21692 8.49098 3.42175 8.49034C3.77648 8.48927 4.13121 8.48838 4.48594 8.4876C4.99881 8.48649 5.51169 8.4851 6.02457 8.48366C6.8567 8.48131 7.68883 8.47919 8.52097 8.47719C9.32925 8.47526 10.1375 8.47322 10.9458 8.47105C11.0206 8.47085 11.0206 8.47085 11.0968 8.47064C11.3468 8.46997 11.5968 8.4693 11.8468 8.46862C13.9204 8.46302 15.994 8.45777 18.0676 8.45275C18.041 8.42635 18.0144 8.39995 17.9871 8.37274C17.3391 7.72909 16.6916 7.08489 16.0448 6.44008C15.7319 6.12826 15.4189 5.81663 15.1055 5.50543C14.8321 5.23406 14.5591 4.96235 14.2866 4.69021C14.1424 4.54625 13.998 4.40246 13.8532 4.25909C13.7166 4.12387 13.5805 3.98819 13.4448 3.85215C13.3951 3.80256 13.3453 3.75314 13.2953 3.70391C12.8638 3.2786 12.5166 2.88254 12.4914 2.259C12.4884 2.20831 12.4854 2.15761 12.4824 2.10538C12.5696 1.5611 12.9075 1.18137 13.2933 0.811948C13.3355 0.769778 13.3778 0.727608 13.4213 0.68416C13.9657 0.15093 14.713 -0.257775 15.4623 0.194417Z" fill="black"/>
</svg>
