<svg width="50" height="50" viewBox="0 0 50 50" fill="none" xmlns="http://www.w3.org/2000/svg">
<g clip-path="url(#clip0_16_6)">
<path d="M29.6926 1.379C30.1091 1.70541 30.4996 2.05309 30.8595 2.44139C30.9173 2.4998 30.9751 2.55821 31.0346 2.61839C32.7705 4.44489 33.1382 6.72481 33.1278 9.15154C33.1278 9.33355 33.1278 9.51557 33.1279 9.69758C33.1279 10.1884 33.1268 10.6792 33.1254 11.17C33.1242 11.6842 33.1241 12.1984 33.1239 12.7125C33.1233 13.6847 33.1217 14.6569 33.1197 15.629C33.1175 16.7364 33.1164 17.8439 33.1155 18.9513C33.1134 21.2279 33.11 23.5046 33.1056 25.7812C33.1655 25.8097 33.2254 25.8382 33.2871 25.8676C33.7426 26.1049 34.1006 26.5069 34.4728 26.8555C34.5458 26.922 34.6188 26.9886 34.6941 27.0573C36.4511 28.7226 37.5788 30.9803 38.1838 33.3008C38.2131 33.4124 38.2424 33.5241 38.2726 33.6391C39.0482 37.1922 38.2624 40.8603 36.3832 43.927C36.0144 44.487 35.5902 44.9974 35.1564 45.5078C35.104 45.5723 35.0517 45.6367 34.9977 45.7031C34.6349 46.1448 34.2308 46.513 33.7892 46.875C33.6553 46.9868 33.6553 46.9868 33.5188 47.1008C30.4992 49.5317 26.8319 50.3208 23.0208 49.9707C22.4635 49.8948 21.9255 49.7701 21.3869 49.6094C21.2801 49.578 21.2801 49.578 21.1712 49.5459C19.6642 49.0883 18.266 48.3869 16.9924 47.4609C16.873 47.3744 16.873 47.3744 16.7513 47.2862C14.2706 45.3935 12.6006 42.7533 11.8166 39.7461C11.7872 39.6344 11.7579 39.5228 11.7277 39.4077C11.2828 37.3696 11.3378 35.0108 11.9142 33.0078C11.9456 32.8959 11.9456 32.8959 11.9776 32.7817C12.7539 30.0825 14.4024 27.4478 16.6994 25.7812C16.7638 25.7812 16.8283 25.7812 16.8947 25.7812C16.8944 25.6876 16.8942 25.5939 16.8939 25.4974C16.8874 23.2125 16.8826 20.9276 16.8795 18.6427C16.878 17.5377 16.876 16.4327 16.8726 15.3278C16.8697 14.3641 16.8678 13.4004 16.8671 12.4368C16.8667 11.927 16.8659 11.4173 16.8637 10.9076C16.8617 10.4266 16.8611 9.94573 16.8616 9.46479C16.8615 9.28939 16.8609 9.11398 16.8598 8.93858C16.8442 6.40261 17.4588 4.14282 19.2384 2.24608C22.0531 -0.433755 26.4792 -0.855152 29.6926 1.379ZM21.6982 5.24901C20.9357 6.1787 20.671 7.30927 20.6798 8.48659C20.6796 8.61094 20.6796 8.61094 20.6793 8.73781C20.679 9.01309 20.68 9.28836 20.6811 9.56365C20.6812 9.76197 20.6811 9.9603 20.681 10.1586C20.681 10.6953 20.6821 11.2319 20.6835 11.7685C20.6847 12.33 20.6848 12.8915 20.6851 13.453C20.6857 14.5154 20.6873 15.5779 20.6892 16.6403C20.6914 17.8502 20.6925 19.0601 20.6935 20.27C20.6955 22.7581 20.6989 25.2462 20.7033 27.7344C20.6424 27.7642 20.5816 27.794 20.5188 27.8247C20.3165 27.9277 20.1454 28.0421 19.9636 28.1776C19.8989 28.2258 19.8341 28.274 19.7674 28.3237C17.4262 30.0931 15.7514 32.2696 15.3322 35.2539C15.2263 36.6812 15.2635 38.0909 15.7228 39.4531C15.7437 39.5161 15.7647 39.579 15.7862 39.6439C16.6422 42.14 18.4377 44.134 20.7864 45.3102C23.0778 46.4001 25.7284 46.6097 28.1336 45.7561C29.2323 45.3367 30.2391 44.7871 31.1525 44.043C31.2737 43.9457 31.2737 43.9457 31.3974 43.8465C33.2171 42.3034 34.3285 40.1453 34.6681 37.793C34.7587 36.3607 34.7364 34.9609 34.2775 33.5937C34.2571 33.5313 34.2367 33.4689 34.2157 33.4045C33.5227 31.3447 32.1534 29.7326 30.4362 28.4426C30.2941 28.3357 30.1536 28.2265 30.0134 28.117C29.6922 27.8345 29.6922 27.8345 29.297 27.7344C29.2973 27.6318 29.2976 27.5292 29.2979 27.4235C29.3044 24.9244 29.3092 22.4253 29.3122 19.9262C29.3137 18.7177 29.3158 17.5091 29.3191 16.3006C29.3221 15.2469 29.324 14.1933 29.3246 13.1396C29.325 12.582 29.3259 12.0243 29.328 11.4667C29.33 10.9412 29.3306 10.4157 29.3302 9.89022C29.3303 9.69796 29.3308 9.5057 29.332 9.31344C29.3415 7.60485 29.1721 6.20075 27.9665 4.89691C26.8913 3.92603 25.7199 3.71947 24.3293 3.78994C23.3009 3.88208 22.393 4.51667 21.6982 5.24901Z" fill="white"/>
<path d="M25.8207 12.9772C26.2814 13.2359 26.5801 13.5581 26.7576 14.0625C26.8148 14.5663 26.807 15.0683 26.802 15.5744C26.8019 15.7285 26.8019 15.8825 26.8021 16.0366C26.8023 16.4534 26.8 16.8702 26.7972 17.287C26.7948 17.7231 26.7946 18.1592 26.7941 18.5953C26.7929 19.4205 26.7897 20.2456 26.7858 21.0708C26.7814 22.0106 26.7792 22.9503 26.7773 23.89C26.7732 25.8225 26.7663 27.755 26.7576 29.6875C26.8245 29.7072 26.8913 29.7269 26.9602 29.7472C27.048 29.7732 27.1358 29.7993 27.2263 29.8261C27.3568 29.8647 27.3568 29.8647 27.4899 29.9041C29.2157 30.4437 30.5323 31.7737 31.3707 33.3355C32.1458 34.8696 32.313 36.9045 31.8525 38.5597C31.4791 39.563 30.9936 40.5099 30.2733 41.3086C30.2249 41.3659 30.1766 41.4232 30.1268 41.4822C29.0954 42.6192 27.4313 43.4525 25.9052 43.5763C23.6388 43.6667 21.8559 43.2377 20.117 41.6992C20.0561 41.6475 19.9951 41.5957 19.9324 41.5424C18.8091 40.5179 18.0784 38.8586 17.947 37.3497C17.8552 35.2496 18.2806 33.4114 19.6962 31.7833C20.635 30.7826 21.7195 30.0704 23.0467 29.6875C23.1111 29.6875 23.1756 29.6875 23.242 29.6875C23.2416 29.6076 23.2413 29.5277 23.2409 29.4454C23.2323 27.5007 23.2258 25.5559 23.2218 23.6112C23.2198 22.6707 23.217 21.7303 23.2125 20.7898C23.2086 19.97 23.2061 19.1503 23.2053 18.3305C23.2047 17.8965 23.2035 17.4625 23.2007 17.0285C23.198 16.6198 23.1972 16.2111 23.1978 15.8023C23.1977 15.6526 23.1969 15.5028 23.1954 15.353C23.1811 13.8459 23.1811 13.8459 23.8005 13.2053C24.4212 12.801 25.1183 12.7184 25.8207 12.9772Z" fill="white"/>
<path d="M37.2019 21.2607C37.2797 21.26 37.3576 21.2594 37.4378 21.2587C37.6951 21.2568 37.9523 21.2565 38.2096 21.2562C38.3889 21.2556 38.5682 21.255 38.7475 21.2543C39.1235 21.2531 39.4995 21.2527 39.8754 21.2529C40.356 21.2529 40.8364 21.2502 41.3169 21.2469C41.6874 21.2447 42.0579 21.2443 42.4284 21.2444C42.6054 21.2442 42.7825 21.2433 42.9596 21.2418C43.208 21.2399 43.4563 21.2404 43.7048 21.2416C43.7772 21.2405 43.8495 21.2394 43.9241 21.2383C44.5304 21.2455 45.041 21.4358 45.4957 21.8441C45.8777 22.4397 45.8982 23.0389 45.8009 23.7305C45.5549 24.2497 45.1943 24.5961 44.6601 24.8137C44.2952 24.9135 43.9576 24.9305 43.5827 24.9292C43.5095 24.9297 43.4364 24.9302 43.3611 24.9307C43.1207 24.932 42.8804 24.9319 42.64 24.9317C42.4719 24.9321 42.3039 24.9325 42.1358 24.933C41.784 24.9337 41.4321 24.9337 41.0803 24.9332C40.6309 24.9326 40.1815 24.9342 39.7321 24.9365C39.3851 24.938 39.0381 24.938 38.6911 24.9377C38.5254 24.9378 38.3598 24.9383 38.1942 24.9393C37.9619 24.9405 37.7297 24.9398 37.4975 24.9387C37.3962 24.9398 37.3962 24.9398 37.2929 24.941C36.7271 24.9349 36.1866 24.8122 35.74 24.4484C35.3017 23.8885 35.0941 23.4881 35.1563 22.7539C35.3129 22.0632 35.6164 21.7599 36.2007 21.3755C36.5301 21.249 36.854 21.2603 37.2019 21.2607Z" fill="white"/>
<path d="M37.1016 6.23272C37.1815 6.23208 37.2613 6.23144 37.3437 6.23077C37.6088 6.22884 37.8739 6.22771 38.1391 6.22673C38.2749 6.22614 38.2749 6.22614 38.4135 6.22553C38.893 6.22349 39.3724 6.22209 39.8519 6.22118C40.3467 6.2201 40.8414 6.21674 41.3361 6.21286C41.7169 6.2103 42.0977 6.20949 42.4785 6.20914C42.6608 6.20866 42.8431 6.20753 43.0255 6.20572C43.2812 6.20333 43.5368 6.20343 43.7925 6.20411C43.8674 6.20286 43.9423 6.20161 44.0194 6.20032C44.5573 6.20549 44.8677 6.33612 45.3126 6.64063C45.8014 7.16797 45.8351 7.60247 45.8284 8.29926C45.7779 8.84055 45.5592 9.13929 45.16 9.50928C44.7319 9.79474 44.3396 9.78119 43.8431 9.78291C43.763 9.78356 43.683 9.7842 43.6005 9.78486C43.3354 9.78678 43.0703 9.78792 42.8052 9.7889C42.7146 9.7893 42.6241 9.78969 42.5307 9.7901C42.0514 9.79214 41.572 9.79354 41.0926 9.79445C40.5978 9.79553 40.1029 9.79889 39.6081 9.80277C39.2273 9.80533 38.8465 9.80614 38.4657 9.80649C38.2833 9.80697 38.1009 9.8081 37.9185 9.80991C37.663 9.81229 37.4076 9.8122 37.1521 9.81152C37.0395 9.8134 37.0395 9.8134 36.9247 9.81532C36.4173 9.81042 36.134 9.69322 35.7423 9.375C35.3043 8.90045 35.106 8.48031 35.1259 7.82395C35.203 7.30162 35.4536 6.88901 35.8522 6.54908C36.2853 6.23834 36.5821 6.23452 37.1016 6.23272Z" fill="white"/>
<path d="M36.877 13.7507C36.9683 13.7491 37.0596 13.7475 37.1537 13.7459C37.5717 13.7415 37.9897 13.7376 38.4077 13.7353C38.6277 13.7337 38.8478 13.731 39.0678 13.7273C39.3858 13.7219 39.7038 13.7198 40.0219 13.7184C40.1683 13.7151 40.1683 13.7151 40.3176 13.7117C40.9629 13.7136 41.3993 13.8326 41.8946 14.2578C42.3012 14.7559 42.3526 15.188 42.3287 15.826C42.2508 16.3406 42.04 16.7084 41.626 17.0253C41.2004 17.2831 40.8143 17.3937 40.3232 17.3985C40.2068 17.3999 40.2068 17.3999 40.088 17.4014C40.0049 17.4018 39.9218 17.4022 39.8362 17.4026C39.7497 17.4032 39.6632 17.4037 39.5741 17.4043C39.3913 17.4052 39.2084 17.4059 39.0255 17.4062C38.7475 17.4072 38.4696 17.4102 38.1916 17.4133C38.0135 17.4139 37.8353 17.4144 37.6572 17.4148C37.5749 17.416 37.4926 17.4172 37.4077 17.4185C36.794 17.4162 36.2317 17.3295 35.7399 16.9288C35.3373 16.4145 35.1052 16.0238 35.1258 15.3434C35.2024 14.8244 35.4527 14.4099 35.846 14.0686C36.2044 13.8169 36.4501 13.7573 36.877 13.7507Z" fill="white"/>
</g>
<defs>
<clipPath id="clip0_16_6">
<rect width="50" height="50" fill="white"/>
</clipPath>
</defs>
</svg>
