<svg width="50" height="50" viewBox="0 0 50 50" fill="none" xmlns="http://www.w3.org/2000/svg">
<g clip-path="url(#clip0_15_163)">
<path d="M23.5595 -0.0366516C23.6325 -0.0414352 23.7056 -0.0462189 23.7808 -0.0511475C24.361 0.0710977 24.7098 0.594705 25.0203 1.06171C25.0681 1.13557 25.1159 1.20943 25.1651 1.28552C25.2173 1.36443 25.2694 1.44333 25.3232 1.52463C25.4359 1.69543 25.5482 1.8665 25.6602 2.03781C25.901 2.40639 26.1439 2.77365 26.3866 3.14101C26.5137 3.33337 26.6406 3.5258 26.7675 3.71829C27.4361 4.7322 28.1158 5.73846 28.7963 6.74435C29.4752 7.74856 30.1534 8.7532 30.8246 9.76254C30.8753 9.83873 30.926 9.91492 30.9782 9.99341C31.2149 10.3495 31.4513 10.7058 31.6873 11.0624C31.7697 11.1867 31.8522 11.311 31.9347 11.4353C32.0057 11.5425 32.0766 11.6498 32.1497 11.7603C32.3144 12.0134 32.3144 12.0134 32.5195 12.207C32.5707 12.1296 32.622 12.0522 32.6747 11.9724C32.9473 11.5615 33.2216 11.1518 33.4961 10.7422C33.5635 10.6412 33.631 10.5403 33.7005 10.4363C33.8853 10.16 34.0709 9.88422 34.2567 9.60864C34.3314 9.49774 34.4059 9.38671 34.4801 9.27555C34.5858 9.11748 34.6923 8.95992 34.7988 8.80238C34.8606 8.71045 34.9224 8.61851 34.9861 8.52379C35.1766 8.27399 35.3335 8.12637 35.6495 8.0692C35.7223 8.06706 35.7952 8.06492 35.8703 8.06271C35.9785 8.05686 35.9785 8.05686 36.0889 8.05089C36.7264 8.19628 37.0945 8.81137 37.4271 9.3269C37.4749 9.39936 37.5228 9.47182 37.5721 9.54647C37.6757 9.70353 37.7788 9.86086 37.8816 10.0184C38.1029 10.3577 38.3262 10.6956 38.5493 11.0336C38.6674 11.2125 38.7854 11.3914 38.9033 11.5705C39.5789 12.5958 40.2667 13.6129 40.9546 14.6301C41.3985 15.2869 41.8422 15.944 42.2851 16.6015C42.3399 16.6827 42.3946 16.7639 42.451 16.8476C42.6119 17.0865 42.7725 17.3256 42.9329 17.5647C42.9808 17.6358 43.0287 17.7068 43.078 17.78C44.4109 19.7727 44.9688 22.1149 44.5583 24.4968C44.2147 26.1613 43.4944 27.6634 42.2851 28.8621C41.9899 29.1608 41.8175 29.3597 41.7968 29.7851C41.8051 29.9788 41.8199 30.1722 41.8396 30.365C42.239 35.0741 40.718 39.8331 37.6953 43.457C37.3491 43.859 36.987 44.2449 36.6211 44.6289C36.5463 44.7099 36.4715 44.791 36.3945 44.8745C35.334 45.9889 34.0495 46.8996 32.7148 47.6562C32.6566 47.6904 32.5984 47.7245 32.5384 47.7597C30.1893 49.1321 27.3761 50.0044 24.644 50.0198C24.565 50.0204 24.486 50.0209 24.4046 50.0215C24.2377 50.0224 24.0709 50.0231 23.904 50.0234C23.6555 50.0244 23.407 50.0274 23.1584 50.0305C21.7157 50.0398 20.2973 49.8739 18.9025 49.4934C18.7902 49.4631 18.7902 49.4631 18.6756 49.4323C16.0802 48.7013 13.6429 47.388 11.6211 45.6054C11.525 45.5212 11.429 45.437 11.33 45.3502C8.0953 42.473 6.10718 38.5407 5.46871 34.2773C5.4536 34.1782 5.4536 34.1782 5.43819 34.0772C4.98999 30.6813 5.56096 27.1047 7.03121 24.0234C7.06641 23.949 7.10161 23.8746 7.13788 23.7979C7.66618 22.6985 8.30436 21.6979 9.00112 20.6989C9.56339 19.8926 10.1117 19.077 10.6609 18.2617C10.8463 17.9865 11.0318 17.7113 11.2174 17.4362C12.0565 16.1915 12.8917 14.9442 13.7214 13.6933C14.2167 12.9473 14.7192 12.2067 15.2256 11.4683C15.8496 10.558 16.4669 9.64313 17.0837 8.728C17.1446 8.63769 17.2055 8.54738 17.2683 8.45433C18.0873 7.2398 18.9029 6.02309 19.7143 4.80344C22.9158 -0.00818704 22.9158 -0.00818696 23.5595 -0.0366516ZM23.5351 2.832C23.3616 3.07967 23.1933 3.32909 23.027 3.58159C22.9742 3.66119 22.9213 3.74078 22.8669 3.82279C22.7515 3.99667 22.6362 4.17066 22.5211 4.34472C22.2101 4.81498 21.8979 5.2845 21.5858 5.75406C21.521 5.85154 21.4563 5.94902 21.3896 6.04945C20.714 7.06564 20.0314 8.07711 19.3481 9.0881C18.4976 10.3468 17.6503 11.6074 16.809 12.8723C16.1994 13.7887 15.5866 14.7026 14.9648 15.6108C13.9843 17.0441 13.0158 18.4856 12.0464 19.9264C11.7225 20.4077 11.398 20.8887 11.0726 21.369C10.8948 21.6318 10.7176 21.8949 10.5405 22.1581C10.4613 22.2756 10.3818 22.393 10.302 22.5103C9.52043 23.6595 8.83255 24.843 8.37398 26.1596C8.34168 26.2507 8.30937 26.3418 8.27609 26.4357C7.9945 27.2485 7.77811 28.0616 7.61715 28.9062C7.59524 29.0146 7.57334 29.123 7.55077 29.2347C6.86093 33.3312 7.92052 37.6492 10.2783 41.0385C10.695 41.6085 11.1433 42.14 11.6222 42.6586C11.778 42.8291 11.9237 43.0012 12.0666 43.1823C14.0727 45.497 17.1996 46.9549 20.1171 47.6562C20.1851 47.6736 20.2531 47.691 20.3231 47.7089C24.2933 48.6936 28.6899 47.6524 32.1289 45.6054C32.607 45.3078 33.0571 44.9814 33.4961 44.6289C33.5501 44.5857 33.6041 44.5425 33.6598 44.4981C37.129 41.701 39.2395 37.8047 39.7716 33.3817C39.8111 32.9969 39.8326 32.613 39.8437 32.2265C39.8465 32.1333 39.8493 32.04 39.8521 31.9439C39.8581 31.5369 39.8517 31.158 39.7461 30.7617C39.6312 30.802 39.5164 30.8423 39.3982 30.8838C38.4707 31.1914 37.5052 31.5025 36.5234 31.5429C36.3863 31.5505 36.3863 31.5505 36.2465 31.5582C34.0527 31.6232 31.9559 30.8979 30.2734 29.4922C30.2083 29.4413 30.1432 29.3904 30.0762 29.338C28.425 27.9963 27.5314 25.8267 27.2766 23.7629C27.0232 21.0617 28.0377 18.9031 29.5349 16.7419C29.7141 16.4816 29.8929 16.2209 30.0716 15.9603C30.1143 15.8981 30.157 15.836 30.201 15.772C30.5637 15.2427 30.9109 14.7049 31.25 14.1601C29.6406 11.7394 28.0227 9.32461 26.3948 6.91628C26.0523 6.40938 25.7103 5.90208 25.369 5.39437C25.1575 5.07988 24.9458 4.76555 24.7341 4.45126C24.6352 4.30444 24.5365 4.15754 24.4379 4.01056C24.3036 3.8104 24.1689 3.61051 24.0341 3.41069C23.9945 3.35141 23.9548 3.29212 23.914 3.23104C23.8228 3.09628 23.7282 2.96384 23.6328 2.832C23.6005 2.832 23.5683 2.832 23.5351 2.832ZM35.8398 11.0351C35.6568 11.2706 35.4858 11.5068 35.3172 11.7523C35.2392 11.8644 35.2392 11.8644 35.1596 11.9789C34.582 12.8126 34.0197 13.6565 33.4594 14.5019C33.2376 14.8363 33.0157 15.1705 32.7938 15.5048C32.7384 15.5883 32.683 15.6718 32.6259 15.7578C32.2549 16.3162 31.8803 16.872 31.5036 17.4267C31.3576 17.6426 31.2116 17.8586 31.0657 18.0746C30.9743 18.2094 30.8825 18.3441 30.7904 18.4784C29.558 20.2759 28.9363 22.0999 29.3336 24.2799C29.6145 25.5942 30.3685 26.8251 31.3476 27.7343C31.398 27.7852 31.4483 27.8361 31.5002 27.8885C32.7424 29.0771 34.4432 29.6343 36.1431 29.6108C37.9852 29.4741 39.6715 28.7077 40.9404 27.3586C42.2292 25.7911 42.7568 23.9758 42.5781 21.9726C42.3699 20.4849 41.6211 19.2727 40.7663 18.0794C40.1162 17.1695 39.4983 16.2388 38.8794 15.3076C38.7683 15.1408 38.6573 14.974 38.5462 14.8073C38.0994 14.136 37.6531 13.4643 37.2105 12.7902C37.0981 12.619 36.9855 12.448 36.8728 12.2771C36.7409 12.0768 36.6095 11.8761 36.4788 11.6749C36.422 11.5888 36.3652 11.5027 36.3067 11.4139C36.2584 11.34 36.2102 11.266 36.1604 11.1898C36.1191 11.1388 36.0777 11.0877 36.0351 11.0351C35.9707 11.0351 35.9062 11.0351 35.8398 11.0351Z" fill="white"/>
<path d="M13.1836 23.6328C13.4929 23.7755 13.7008 23.8896 13.86 24.1993C13.9892 24.6075 13.9874 24.905 13.7871 25.2968C13.588 25.6277 13.3769 25.9509 13.1672 26.2752C11.6287 28.7454 11.202 31.8191 11.8187 34.6522C12.2749 36.5027 13.1276 38.0994 14.3555 39.5508C14.406 39.6155 14.4565 39.6802 14.5085 39.7468C15.6789 41.1959 17.4422 42.1789 19.1699 42.7905C19.6421 42.9637 19.9538 43.0984 20.2149 43.5547C20.2896 43.8946 20.2446 44.226 20.1539 44.5618C19.9427 44.8208 19.7483 44.9088 19.4336 45.0195C18.8184 44.9852 18.3229 44.8191 17.7613 44.574C17.6803 44.539 17.5992 44.5041 17.5158 44.4681C14.3107 43.0574 11.6815 40.4442 10.3587 37.1788C9.07492 33.7611 9.05697 29.853 10.5636 26.5036C12.0052 23.4914 12.0052 23.4914 13.1836 23.6328Z" fill="white"/>
<path d="M32.3243 19.9219C32.6545 20.1659 32.7872 20.3293 32.9102 20.7214C32.9102 21.059 32.8733 21.2453 32.7698 21.5576C32.4855 22.4223 32.5424 23.2883 32.9102 24.1211C33.1769 24.5797 33.5071 24.9222 33.9112 25.2625C34.2048 25.5112 34.4038 25.6805 34.4727 26.0742C34.4727 26.524 34.4228 26.703 34.1248 27.0447C33.8369 27.2508 33.5705 27.3245 33.2101 27.2991C32.8065 27.1933 32.5308 26.9346 32.2266 26.6602C32.1622 26.608 32.0977 26.5559 32.0313 26.5022C31.2213 25.7903 30.5465 24.5241 30.4688 23.4375C30.4063 22.3285 30.3964 21.0682 31.0547 20.1172C31.4965 19.8059 31.8072 19.7715 32.3243 19.9219Z" fill="white"/>
<path d="M22.8333 43.8782C23.047 44.043 23.047 44.043 23.2423 44.3359C23.2963 45.1872 23.2963 45.1872 23.047 45.5078C22.818 45.709 22.6517 45.7965 22.3451 45.8107C21.9927 45.7863 21.7405 45.7395 21.4356 45.5566C21.2188 45.1953 21.1721 44.8523 21.1915 44.4336C21.3094 44.1419 21.4062 44.004 21.6554 43.8171C22.0789 43.6877 22.4313 43.6905 22.8333 43.8782Z" fill="white"/>
<path d="M36.4258 26.1719C36.7431 26.4134 36.8865 26.5718 37.0056 26.9531C37.015 27.4027 36.9128 27.6263 36.615 27.9602C36.2206 28.1868 35.8934 28.2286 35.4492 28.125C35.1241 27.8662 34.9999 27.7226 34.9148 27.3216C34.887 26.8955 34.9203 26.7129 35.1868 26.3672C35.6236 26.0422 35.9045 26.0461 36.4258 26.1719Z" fill="white"/>
</g>
<defs>
<clipPath id="clip0_15_163">
<rect width="50" height="50" fill="white"/>
</clipPath>
</defs>
</svg>
