<svg width="50" height="50" viewBox="0 0 50 50" fill="none" xmlns="http://www.w3.org/2000/svg">
<path d="M12.8053 3.06399C12.8833 3.09042 12.9612 3.11685 13.0415 3.14408C14.3573 3.59059 15.6396 4.08925 16.8947 4.68752C16.9659 4.7212 17.0372 4.75487 17.1106 4.78956C17.565 5.00583 18.0125 5.23329 18.4572 5.46877C18.5259 5.50496 18.5947 5.54116 18.6655 5.57844C20.3321 6.46188 21.8863 7.48937 23.34 8.69143C23.3963 8.73772 23.4527 8.78402 23.5107 8.83171C24.3828 9.55161 25.188 10.3231 25.9767 11.1328C26.0741 11.2307 26.1717 11.3285 26.2697 11.4258C26.3437 11.383 26.4177 11.3402 26.494 11.2961C31.4273 8.5504 38.9083 6.16622 44.629 6.7383C45.0944 6.90514 45.3765 7.15275 45.7033 7.51955C46.8557 10.1542 46.9088 13.8669 46.9728 16.6992C46.9749 16.7923 46.9771 16.8854 46.9793 16.9813C47.1254 24.6158 45.2951 32.3011 39.8889 37.9368C38.4279 39.436 36.7818 40.6704 34.9611 41.6992C34.8768 41.7469 34.7924 41.7947 34.7056 41.8438C30.9623 43.9352 26.8148 44.9698 22.577 45.4407C22.5056 45.4487 22.4341 45.4566 22.3605 45.4648C20.6397 45.6529 18.9243 45.7229 17.1937 45.7215C17.1063 45.7215 17.0188 45.7216 16.9287 45.7217C15.4469 45.7215 13.9734 45.6642 12.4952 45.5636C12.3088 45.5511 12.1222 45.5394 11.9357 45.5279C11.7551 45.5164 11.5745 45.5034 11.3943 45.4863C10.7809 45.447 10.2724 45.7091 9.72303 45.9473C8.8505 46.3114 7.9758 46.6391 7.07411 46.9238C6.92362 46.9715 6.92362 46.9715 6.7701 47.0202C4.59209 47.6986 4.59209 47.6986 3.82093 47.3023C3.41095 46.9907 3.18979 46.6784 3.02748 46.1914C2.97223 45.6279 3.07191 45.1755 3.4181 44.7266C3.91879 44.312 4.47052 44.1791 5.09047 44.0125C5.8736 43.7931 6.6485 43.5619 7.41591 43.2923C7.49252 43.2656 7.56914 43.2389 7.64808 43.2115C8.17062 43.0256 8.67598 42.8098 9.17982 42.5781C9.18369 42.4944 9.18756 42.4107 9.19155 42.3245C9.32125 39.6244 9.55141 36.9651 10.0953 34.314C10.1095 34.2443 10.1237 34.1747 10.1383 34.103C10.2815 33.4066 10.439 32.722 10.658 32.0446C11.016 31.0991 11.016 31.0991 10.8953 30.1483C10.6826 29.9169 10.4629 29.7241 10.2157 29.5309C9.92003 29.274 9.69771 28.9581 9.46669 28.6438C9.41726 28.5774 9.36784 28.5109 9.31691 28.4424C8.81392 27.7534 8.39593 27.0283 8.00795 26.2696C7.97372 26.203 7.9395 26.1364 7.90423 26.0678C7.19614 24.6728 6.71243 23.2485 6.3722 21.7224C6.35279 21.6361 6.33338 21.5497 6.31339 21.4607C6.00715 20.0097 5.91984 18.5685 5.92665 17.0899C5.92686 17.0068 5.92707 16.9238 5.92729 16.8382C5.94478 12.5121 7.02203 8.25706 8.75258 4.303C8.80353 4.18427 8.80353 4.18427 8.85552 4.06315C9.1171 3.48341 9.44025 2.93674 9.99159 2.59402C10.9976 2.38346 11.8667 2.74045 12.8053 3.06399ZM11.5236 6.15237C10.3172 8.7067 9.6111 11.5576 9.27748 14.3555C9.26827 14.4262 9.25907 14.4969 9.24958 14.5698C9.15564 15.3687 9.15604 16.1706 9.15541 16.9739C9.15534 17.0497 9.15528 17.1255 9.15521 17.2036C9.15689 18.4234 9.21623 19.6044 9.47279 20.8008C9.48903 20.8781 9.50527 20.9555 9.522 21.0351C9.99683 23.2149 10.9492 25.1865 12.3048 26.9531C12.547 26.736 12.6694 26.5392 12.7954 26.2406C12.8502 26.1139 12.8502 26.1139 12.9061 25.9847C12.9454 25.8934 12.9846 25.8021 13.025 25.708C13.7949 23.972 14.7406 22.3561 15.8327 20.8039C15.8794 20.7374 15.9261 20.6709 15.9742 20.6024C16.0671 20.4741 16.163 20.3479 16.2618 20.224C16.5325 19.8992 16.5325 19.8992 16.5806 19.4976C16.4957 19.21 16.3869 18.9484 16.2622 18.6756C16.2131 18.5672 16.1639 18.4587 16.1133 18.3469C16.061 18.2322 16.0087 18.1175 15.9547 17.9993C15.5977 17.2072 15.2429 16.4148 14.9232 15.6067C14.896 15.5397 14.8688 15.4727 14.8408 15.4037C14.5786 14.7272 14.4572 14.1314 14.7512 13.4529C14.9278 13.1259 15.1328 12.9471 15.4542 12.7686C15.9488 12.6337 16.3466 12.6378 16.8214 12.8113C17.3252 13.1434 17.5437 13.5734 17.7648 14.1232C17.7896 14.184 17.8143 14.2447 17.8398 14.3074C17.9182 14.5001 17.9955 14.6933 18.0726 14.8865C18.1504 15.0793 18.2283 15.272 18.3065 15.4646C18.3774 15.6395 18.4476 15.8147 18.5178 15.9899C18.6483 16.2987 18.7921 16.5965 18.9454 16.8946C19.3829 16.5906 19.7762 16.2699 20.1478 15.8875C20.9305 15.0888 21.8275 14.4317 22.7241 13.7681C22.8207 13.6965 22.8207 13.6965 22.9192 13.6234C22.9768 13.581 23.0344 13.5385 23.0938 13.4947C23.2564 13.3728 23.2564 13.3728 23.4376 13.1836C22.7247 12.4483 22.0011 11.7631 21.1915 11.1328C21.0667 11.0333 20.9418 10.9337 20.8169 10.8341C18.5436 9.03915 14.4969 6.15237 11.5236 6.15237ZM23.1023 17.5413C22.9935 17.637 22.8839 17.7318 22.7737 17.826C21.5318 18.8934 20.3168 20.0721 19.3361 21.3867C19.2326 21.5205 19.1291 21.6543 19.0256 21.788C18.1496 22.9339 17.4071 24.1353 16.6994 25.3906C16.6277 25.5148 16.5559 25.6389 16.4842 25.763C14.0226 30.1658 12.4097 35.9328 12.5001 41.0156C14.5064 40.2723 16.4138 38.8416 18.0886 37.5369C18.2564 37.4066 18.4255 37.2781 18.5953 37.1502C19.6154 36.3791 20.5874 35.5556 21.5322 34.6939C21.6674 34.5719 21.8033 34.4506 21.9418 34.3323C22.485 33.8667 22.9935 33.3692 23.498 32.8625C23.6388 32.7212 23.7801 32.5804 23.9215 32.4396C24.4321 31.9294 24.9223 31.4085 25.3908 30.8594C25.4905 30.7464 25.5904 30.6336 25.6906 30.521C26.4256 29.6881 27.1114 28.8266 27.777 27.9374C27.9216 27.7453 28.068 27.5546 28.2152 27.3644C28.6663 26.7771 29.0975 26.1839 29.5019 25.5631C29.5711 25.457 29.6403 25.351 29.7115 25.2417C29.8479 25.0313 29.983 24.82 30.1167 24.6078C30.2106 24.4627 30.2106 24.4627 30.3064 24.3145C30.3613 24.2278 30.4162 24.1411 30.4728 24.0518C30.7537 23.7236 31.0731 23.5656 31.4969 23.4928C32.0866 23.4919 32.4356 23.5674 32.9103 23.9258C33.2206 24.2982 33.314 24.7158 33.3009 25.1953C33.0936 25.9073 32.7087 26.4723 32.2938 27.0813C32.2244 27.1842 32.1549 27.2871 32.0833 27.3932C31.0613 28.8975 29.9755 30.3436 28.8087 31.7383C28.7602 31.7965 28.7116 31.8547 28.6616 31.9147C27.5422 33.2529 26.3413 34.5071 25.11 35.7422C25.0619 35.7905 25.0139 35.8389 24.9643 35.8887C24.408 36.4473 23.8443 36.9905 23.2423 37.5C23.1403 37.588 23.0383 37.676 22.9364 37.764C21.2529 39.1969 19.5019 40.5658 17.6289 41.7431C17.2679 41.9704 16.9295 42.2058 16.6017 42.4805C24.0861 42.6673 31.8151 41.0743 37.4116 35.8208C38.7219 34.5685 39.7338 33.1117 40.6251 31.543C40.6579 31.4867 40.6908 31.4304 40.7246 31.3725C42.5488 28.2346 43.3759 24.4878 43.6525 20.8985C43.658 20.8335 43.6635 20.7686 43.6692 20.7017C43.9564 17.2599 43.8912 13.4104 42.9689 10.0586C36.0925 10.0586 28.256 12.9895 23.1023 17.5413Z" fill="white"/>
</svg>
