<svg width="50" height="50" viewBox="0 0 50 50" fill="none" xmlns="http://www.w3.org/2000/svg">
<g clip-path="url(#clip0_16_2)">
<path d="M24.2994 0.590869C24.685 0.706124 24.906 0.90612 25.1771 1.19016C25.2529 1.26816 25.2529 1.26816 25.3301 1.34773C26.8271 2.94084 27.4145 4.82365 27.374 6.98011C27.3067 8.61679 26.5844 10.1268 25.4884 11.3281C25.4007 11.3958 25.3129 11.4635 25.2225 11.5333C24.8878 11.9593 24.9467 12.3474 24.9696 12.8723C24.9718 12.9679 24.974 13.0635 24.9763 13.162C24.982 13.3972 24.9901 13.6321 25.0001 13.8672C25.0455 13.8142 25.0909 13.7613 25.1377 13.7068C25.3176 13.4979 25.5004 13.2918 25.6837 13.0859C25.7595 12.9985 25.7595 12.9985 25.8367 12.9093C27.0085 11.6376 28.772 10.9879 30.4681 10.9127C30.6454 10.908 30.8226 10.9041 30.9999 10.9009C31.0856 10.8983 31.1712 10.8957 31.2595 10.8931C31.6229 10.8922 31.8644 10.8983 32.1844 11.079C32.3965 11.4565 32.3825 11.7989 32.3732 12.2253C32.3719 12.312 32.3707 12.3987 32.3694 12.488C32.3165 14.2461 31.7528 15.8647 30.5665 17.1875C30.5003 17.2616 30.4341 17.3358 30.3659 17.4122C28.9082 18.9555 27.0594 19.5344 25.0001 19.6289C25.0324 20.499 25.0646 21.3691 25.0978 22.2656C25.3002 22.0269 25.3002 22.0269 25.5067 21.7834C26.638 20.512 28.2744 19.5978 29.9806 19.4336C30.3449 19.413 30.7083 19.4052 31.0731 19.403C31.1631 19.4025 31.2532 19.4019 31.3459 19.4014C31.9938 19.4085 31.9938 19.4085 32.3244 19.6289C32.7557 20.9228 32.3256 22.7478 31.7811 23.9452C30.8147 25.8282 29.352 27.137 27.3477 27.8351C26.5546 28.0647 25.8194 28.0501 25.0001 28.0273C25.0324 28.9619 25.0646 29.8965 25.0978 30.8593C25.2529 30.6821 25.408 30.5049 25.5678 30.3222C26.7873 28.9735 28.4211 28.0468 30.2556 27.909C30.5487 27.8957 30.8408 27.8892 31.1342 27.8869C31.2281 27.8859 31.322 27.885 31.4187 27.8839C31.5067 27.885 31.5947 27.8862 31.6854 27.8873C31.7639 27.8883 31.8425 27.8892 31.9234 27.8902C32.1797 27.9394 32.2643 28.0178 32.422 28.2226C32.877 29.5877 32.3084 31.5447 31.7049 32.7903C31.1225 33.8159 30.357 34.6731 29.3947 35.3515C29.3196 35.4047 29.2446 35.4578 29.1673 35.5125C27.9155 36.3291 26.578 36.5234 25.0978 36.5234C25.0978 38.2636 25.0978 40.0039 25.0978 41.7968C25.7746 41.7968 26.4513 41.7968 27.1486 41.7968C27.6423 41.8251 28.1283 41.8579 28.6195 41.9067C28.6837 41.9129 28.7478 41.9192 28.8139 41.9256C32.6381 42.3016 36.6901 43.0122 40.2345 44.5312C40.2345 43.5 40.2345 42.4687 40.2345 41.4062C39.88 41.4062 39.5255 41.4062 39.1603 41.4062C37.2437 41.1226 35.4431 40.1376 34.2775 38.5742C33.3713 37.1734 32.8784 35.7697 32.8676 34.0942C32.8644 34.0041 32.8612 33.9139 32.8578 33.8211C32.8527 33.175 32.8527 33.175 33.1213 32.8506C34.1372 32.3531 35.8147 32.7822 36.8349 33.1238C38.196 33.6529 39.3546 34.4712 40.2345 35.6445C40.2667 34.7422 40.299 33.8398 40.3322 32.9101C39.9455 32.9101 39.5587 32.9101 39.1603 32.9101C37.6729 32.6863 36.3726 32.0637 35.254 31.0547C35.1521 30.9663 35.1521 30.9663 35.0481 30.8761C33.8905 29.8084 33.1136 28.1607 32.9864 26.5886C32.975 26.307 32.9717 26.0264 32.9713 25.7446C32.9689 25.6486 32.9665 25.5525 32.9641 25.4535C32.9637 25.3615 32.9633 25.2695 32.9629 25.1747C32.9621 25.0918 32.9613 25.0089 32.9605 24.9235C33.008 24.707 33.008 24.707 33.1813 24.5337C33.4106 24.4074 33.5357 24.3764 33.7945 24.3751C33.87 24.3745 33.9455 24.3739 34.0232 24.3733C34.1031 24.3747 34.183 24.376 34.2653 24.3774C34.348 24.3783 34.4307 24.3793 34.5159 24.3802C36.6789 24.4315 38.4444 25.3473 39.9415 26.8554C40.0705 27.0166 40.1994 27.1777 40.3322 27.3437C40.3644 26.4414 40.3966 25.539 40.4298 24.6093C40.1398 24.6093 39.8498 24.6093 39.5509 24.6093C37.5385 24.3507 35.8792 23.4528 34.5582 21.9177C34.2436 21.5073 33.9946 21.0763 33.7587 20.6176C33.7269 20.5568 33.6951 20.4959 33.6623 20.4332C33.175 19.4388 33.0543 18.424 33.0568 17.3279C33.054 17.2145 33.0512 17.1011 33.0484 16.9843C33.0481 16.876 33.0479 16.7677 33.0476 16.6561C33.0469 16.5587 33.0462 16.4613 33.0455 16.361C33.1056 16.1133 33.1056 16.1133 33.3376 15.9351C34.4539 15.4352 36.2488 15.9584 37.3346 16.3482C38.5518 16.8482 39.698 17.75 40.4298 18.8476C40.5736 17.6174 40.5736 17.6174 40.2399 16.4695C40.0722 16.2999 39.899 16.1355 39.7211 15.9767C38.6715 14.981 38.1064 13.2989 38.0567 11.8816C38.0348 9.85791 38.4497 8.0766 39.8439 6.54294C39.9217 6.45394 39.9995 6.36494 40.0796 6.27324C40.7124 5.58788 40.7124 5.58788 41.15 5.50077C41.6413 5.59182 41.8549 5.82509 42.1876 6.18283C42.2474 6.24506 42.3071 6.30729 42.3686 6.3714C42.8407 6.87484 43.2324 7.39569 43.5548 8.00778C43.6005 8.09263 43.6462 8.17748 43.6933 8.2649C44.5174 9.92281 44.597 11.9341 44.0127 13.6832C43.6389 14.7053 43.089 15.7413 42.2147 16.4161C41.88 16.8421 41.9389 17.2302 41.9618 17.7551C41.964 17.8507 41.9662 17.9463 41.9685 18.0448C41.9742 18.28 41.9822 18.5149 41.9923 18.75C42.0467 18.6874 42.1011 18.6248 42.1571 18.5604C43.5512 16.9802 45.1699 15.9731 47.3169 15.8294C47.4366 15.8249 47.4366 15.8249 47.5587 15.8203C47.6587 15.8152 47.7586 15.8102 47.8616 15.805C48.7602 15.7788 48.7602 15.7788 49.2189 16.1133C49.6666 17.0086 49.2724 18.6054 49.0236 19.5312C48.7121 20.457 48.2651 21.2133 47.6564 21.9726C47.5416 22.1267 47.5416 22.1267 47.4245 22.2839C46.2959 23.4931 44.6284 24.3661 42.9689 24.5117C42.6144 24.5117 42.2599 24.5117 41.8947 24.5117C41.9269 25.414 41.9591 26.3164 41.9923 27.2461C42.3307 26.8593 42.3307 26.8593 42.6759 26.4648C44.1839 24.9452 45.9799 24.3367 48.0958 24.2737C48.2237 24.2698 48.3516 24.2659 48.4834 24.2618C48.8283 24.3164 48.8283 24.3164 49.1151 24.5216C49.5654 25.1544 49.3504 26.1327 49.2356 26.8709C48.911 28.709 47.9471 30.3375 46.454 31.4697C44.9893 32.4773 43.6787 32.8125 41.8947 32.8125C41.9269 33.747 41.9591 34.6816 41.9923 35.6445C42.1514 35.4652 42.3106 35.286 42.4745 35.1013C43.6602 33.8026 45.2467 32.7922 47.0465 32.7012C47.547 32.685 48.0475 32.6804 48.5483 32.6854C48.675 32.6867 48.675 32.6867 48.8043 32.688C49.0236 32.7148 49.0236 32.7148 49.3165 32.9101C49.7698 34.1572 49.2629 36.1596 48.7306 37.3047C47.7536 39.1355 46.315 40.3859 44.3452 41.0537C43.4969 41.3026 42.9346 41.3086 41.9923 41.3086C42.0246 42.5009 42.0568 43.6933 42.09 44.9218C42.4747 45.0669 42.8594 45.2119 43.2558 45.3613C44.3758 45.794 45.4608 46.2811 46.5394 46.8078C46.6071 46.8408 46.6747 46.8738 46.7444 46.9077C48.9744 47.9977 48.9744 47.9977 49.3165 48.3398C49.3532 48.6755 49.3532 48.6755 49.3165 49.0234C49.1076 49.2726 48.9809 49.3112 48.6588 49.3417C48.274 49.3111 48.0367 49.1951 47.6953 49.0158C47.6342 48.9843 47.5732 48.9528 47.5103 48.9203C47.3789 48.8525 47.2477 48.7843 47.1168 48.7156C46.7663 48.5323 46.4134 48.3537 46.0603 48.1754C45.9888 48.1393 45.9173 48.1031 45.8436 48.0659C37.7639 44.0073 28.3661 42.249 10.3599 45.4706C9.36591 45.804 8.3901 46.1801 7.42202 46.582C7.32767 46.6211 7.23332 46.6602 7.13611 46.7005C6.03727 47.1598 4.9565 47.6555 3.88198 48.1689C3.78321 48.2161 3.68445 48.2633 3.58269 48.3119C3.00777 48.5898 2.44718 48.8844 1.89309 49.202C1.54965 49.3708 1.35098 49.3944 0.976705 49.3164C0.781392 49.1577 0.781392 49.1577 0.683736 48.9258C0.691747 48.6408 0.691747 48.6408 0.781392 48.3398C1.01447 48.1495 1.01447 48.1495 1.33681 47.9797C1.42714 47.9315 1.42714 47.9315 1.5193 47.8823C1.72795 47.7722 1.93821 47.6654 2.14858 47.5586C2.30615 47.4761 2.4637 47.3936 2.62122 47.311C4.36913 46.4068 6.18187 45.6523 8.00795 44.9218C8.04018 43.7617 8.07241 42.6015 8.10561 41.4062C7.75112 41.4062 7.39663 41.4062 7.03139 41.4062C5.1227 41.1594 3.38282 40.2296 2.1913 38.7146C1.16181 37.2903 0.671642 35.7689 0.659322 34.0149C0.657308 33.942 0.655293 33.8692 0.653218 33.7942C0.650952 33.4766 0.660905 33.2453 0.813436 32.9632C1.16185 32.6416 1.57781 32.6945 2.02346 32.7003C4.13185 32.7957 5.82507 33.4498 7.32436 34.9609C7.54995 35.2187 7.77553 35.4765 8.00795 35.7422C8.04018 34.8076 8.07241 33.873 8.10561 32.9101C7.71889 32.9101 7.33217 32.9101 6.93374 32.9101C4.99735 32.6303 3.26949 31.6357 2.06427 30.093C1.11719 28.6957 0.689967 27.2436 0.659322 25.5615C0.657221 25.4933 0.65512 25.4251 0.652956 25.3549C0.651134 25.0698 0.673378 24.8319 0.774907 24.5647C1.11292 24.3123 1.47656 24.3609 1.88613 24.3713C1.97387 24.3727 2.06161 24.374 2.15201 24.3754C4.21752 24.4321 6.0891 25.254 7.51967 26.7578C7.68081 26.9834 7.84194 27.209 8.00795 27.4414C8.04018 26.5068 8.07241 25.5722 8.10561 24.6093C7.81557 24.6093 7.52553 24.6093 7.2267 24.6093C5.23729 24.3678 3.54516 23.535 2.24624 21.9726C1.12078 20.5255 0.682045 18.9017 0.653218 17.0837C0.65061 16.9772 0.65061 16.9772 0.647949 16.8686C0.648418 16.5612 0.66494 16.3429 0.813817 16.0709C1.14294 15.7618 1.51727 15.7994 1.94144 15.8062C4.00623 15.9018 5.86685 16.5301 7.32436 18.0664C7.52529 18.3228 7.7191 18.5839 7.9103 18.8476C8.04607 17.6315 8.04607 17.6315 7.74207 16.4879C7.52173 16.2563 7.52173 16.2563 7.27706 16.045C6.50241 15.3365 6.07516 14.263 5.76186 13.2812C5.73782 13.2059 5.71377 13.1307 5.689 13.0531C5.23279 11.2597 5.59794 9.33712 6.45385 7.73275C6.7362 7.26312 7.05529 6.85147 7.42202 6.44528C7.4949 6.36107 7.56779 6.27685 7.64289 6.19008C8.19946 5.58248 8.19946 5.58248 8.68544 5.50534C8.98452 5.56638 8.98452 5.56638 9.17983 5.66403C9.18386 5.77683 9.18789 5.88962 9.19204 6.00583C9.23109 6.39498 9.35304 6.55985 9.62539 6.83591C10.8278 8.09446 11.297 9.91207 11.2766 11.6134C11.2099 13.3537 10.5514 14.9216 9.37514 16.2109C9.2874 16.2786 9.19966 16.3464 9.10926 16.4161C8.77457 16.8421 8.83343 17.2302 8.85634 17.7551C8.85855 17.8507 8.86075 17.9463 8.86302 18.0448C8.86876 18.28 8.87677 18.5149 8.88686 18.75C8.94124 18.6874 8.99563 18.6248 9.05166 18.5604C10.4458 16.9802 12.0644 15.9731 14.2114 15.8294C14.3311 15.8249 14.3311 15.8249 14.4533 15.8203C14.5532 15.8152 14.6532 15.8102 14.7562 15.805C15.6548 15.7788 15.6548 15.7788 16.1134 16.1133C16.5611 17.0086 16.1669 18.6054 15.9181 19.5312C15.6066 20.457 15.1597 21.2133 14.5509 21.9726C14.4361 22.1267 14.4361 22.1267 14.319 22.2839C13.1904 23.4931 11.5229 24.3661 9.86342 24.5117C9.50893 24.5117 9.15444 24.5117 8.7892 24.5117C8.83754 25.9135 8.83754 25.9135 8.88686 27.3437C9.14467 27.0215 9.40249 26.6992 9.66811 26.3672C11.238 24.9831 12.982 24.3078 15.0636 24.292C15.1652 24.2889 15.1652 24.2889 15.2688 24.2859C15.5704 24.2836 15.7876 24.2992 16.057 24.44C16.4288 24.8486 16.3137 25.4435 16.2904 25.9582C16.1781 28.2083 15.3539 29.8548 13.7273 31.3743C12.3277 32.574 10.6977 33.0078 8.88686 33.0078C8.9352 34.3613 8.9352 34.3613 8.98452 35.7422C9.14968 35.5508 9.31484 35.3595 9.48501 35.1623C10.7506 33.7594 12.5022 32.9308 14.3908 32.796C14.6294 32.7847 14.8674 32.7787 15.1063 32.7759C15.1812 32.7745 15.2561 32.7731 15.3332 32.7717C15.7578 32.7754 16.0042 32.8048 16.3087 33.1054C16.3593 33.3201 16.3593 33.3201 16.3606 33.5705C16.3618 33.7091 16.3618 33.7091 16.3631 33.8505C16.3603 33.9983 16.3603 33.9983 16.3576 34.1491C16.3557 34.3009 16.3557 34.3009 16.3538 34.4556C16.2989 36.5556 15.4679 38.3109 13.9467 39.7644C12.5168 40.9797 10.8399 41.5039 8.98452 41.5039C9.03286 43.0024 9.03286 43.0024 9.08217 44.5312C9.5555 44.3842 10.0288 44.2372 10.5165 44.0857C14.9761 42.7279 19.4619 42.0191 24.1212 41.8945C24.1212 40.1865 24.1212 38.4785 24.1212 36.7187C23.799 36.7187 23.4767 36.7187 23.1447 36.7187C21.2066 36.4613 19.5051 35.5274 18.2516 34.032C17.0456 32.3788 16.5298 30.4538 16.797 28.4179C16.9923 28.125 16.9923 28.125 17.2853 28.0273C19.6788 27.864 21.6207 28.5847 23.4273 30.1574C23.6895 30.4298 23.9015 30.747 24.1212 31.0547C24.1535 30.1201 24.1857 29.1855 24.2189 28.2226C23.8644 28.2226 23.5099 28.2226 23.1447 28.2226C21.2186 27.9735 19.6086 27.0519 18.3595 25.5859C17.3602 24.2613 16.9058 22.8377 16.8153 21.1975C16.8101 21.1084 16.8049 21.0193 16.7996 20.9275C16.765 20.0862 16.765 20.0862 16.9923 19.7265C17.6676 19.2381 18.9012 19.5475 19.6619 19.6598C21.6215 20.0254 22.9532 21.0819 24.2189 22.5586C24.2511 21.624 24.2833 20.6894 24.3165 19.7265C23.9298 19.7265 23.5431 19.7265 23.1447 19.7265C21.2088 19.4468 19.4792 18.4524 18.2752 16.909C17.3304 15.5169 16.8821 14.0181 16.8703 12.3352C16.8672 12.2259 16.8672 12.2259 16.8642 12.1145C16.862 11.8116 16.8656 11.5768 17.0121 11.3075C17.2429 11.0778 17.3624 11.0837 17.6843 11.0843C17.7826 11.084 17.8809 11.0837 17.9822 11.0834C18.0866 11.0856 18.191 11.0878 18.2985 11.0901C18.4584 11.0924 18.4584 11.0924 18.6216 11.0948C20.7571 11.147 22.4009 12.0148 23.8893 13.5212C24.0236 13.6718 24.0236 13.6718 24.2189 13.9648C24.372 12.6893 24.372 12.6893 24.0289 11.5043C23.8612 11.353 23.688 11.2076 23.5101 11.0683C22.5118 10.2165 21.9748 8.56406 21.8534 7.29103C21.7556 5.2538 22.1957 3.42329 23.5742 1.86383C23.7341 1.65555 23.7948 1.52751 23.8283 1.2695C23.7906 1.00764 23.7906 1.00764 23.7306 0.781223C24.0236 0.58591 24.0236 0.58591 24.2994 0.590869Z" fill="white"/>
</g>
<defs>
<clipPath id="clip0_16_2">
<rect width="50" height="50" fill="white"/>
</clipPath>
</defs>
</svg>
