<svg width="50" height="50" viewBox="0 0 50 50" fill="none" xmlns="http://www.w3.org/2000/svg">
<g clip-path="url(#clip0_16_30)">
<path d="M44.5312 -5.90906e-05C44.9433 0.309752 45.1496 0.685688 45.3798 1.14085C45.4122 1.20443 45.4447 1.26802 45.4781 1.33353C45.5843 1.54222 45.689 1.75159 45.7935 1.96108C45.8672 2.10741 45.941 2.25373 46.0148 2.40002C46.1688 2.70612 46.3221 3.0126 46.475 3.31932C46.6704 3.71127 46.8681 4.10202 47.0664 4.49249C47.2192 4.79414 47.3706 5.09651 47.5215 5.39909C47.5938 5.54343 47.6666 5.68752 47.7399 5.83135C47.8424 6.03296 47.9428 6.23547 48.0428 6.43832C48.1003 6.55308 48.1578 6.66784 48.2171 6.78608C48.3656 7.20078 48.3738 7.47255 48.3398 7.9101C48.1306 8.2365 47.988 8.29014 47.6135 8.39227C47.2144 8.39928 47.0938 8.33768 46.7773 8.10541C46.6296 7.89354 46.6296 7.89354 46.5068 7.64495C46.4599 7.55176 46.413 7.45856 46.3647 7.36254C46.2916 7.21193 46.2916 7.21193 46.217 7.05828C46.1656 6.95511 46.1143 6.85194 46.0614 6.74565C45.9534 6.52786 45.8459 6.30974 45.7391 6.09132C45.5751 5.75586 45.4092 5.42138 45.2429 5.08703C45.1382 4.87543 45.0336 4.66378 44.9291 4.45207C44.8794 4.35147 44.8297 4.25086 44.7784 4.14721C44.7104 4.00788 44.7104 4.00788 44.641 3.86573C44.5807 3.7428 44.5807 3.7428 44.5193 3.61738C44.4336 3.41791 44.4336 3.41791 44.4336 3.2226C44.3691 3.2226 44.3047 3.2226 44.2383 3.2226C44.2239 3.28024 44.2096 3.33789 44.1948 3.39729C43.9638 4.28538 43.664 5.14704 43.3594 6.0119C43.3314 6.09149 43.3034 6.17108 43.2746 6.25308C41.9574 9.98646 40.2681 13.5859 38.0859 16.8945C38.0428 16.9601 37.9997 17.0256 37.9553 17.0932C36.6462 19.0729 35.1688 20.9342 33.5552 22.6734C33.3266 22.9212 33.1027 23.1724 32.8796 23.4252C32.1236 24.2669 31.3231 25.0871 30.4588 25.8182C30.2413 26.0039 30.0322 26.1978 29.8218 26.3915C29.2755 26.8838 28.7014 27.335 28.119 27.7834C27.9236 27.9343 27.7292 28.0866 27.5349 28.239C26.1677 29.3051 24.7346 30.2696 23.2422 31.1523C23.173 31.1935 23.1038 31.2347 23.0326 31.2771C17.6244 34.4827 11.6273 36.5519 5.39551 37.3901C5.30906 37.4018 5.2226 37.4136 5.13353 37.4257C4.52613 37.5007 3.93224 37.5088 3.32031 37.4999C3.28809 36.9199 3.25586 36.3398 3.22266 35.7421C3.41312 35.7207 3.60358 35.6993 3.79982 35.6773C8.85395 35.09 13.7614 33.8434 18.3594 31.6406C18.4664 31.5896 18.5735 31.5386 18.6838 31.4861C20.6051 30.5652 22.4709 29.5421 24.2187 28.3203C24.2804 28.2776 24.3421 28.235 24.4057 28.1911C26.2014 26.9506 27.8807 25.5929 29.4922 24.121C29.6323 23.9945 29.6323 23.9945 29.7752 23.8654C30.6401 23.0823 31.489 22.2827 32.2468 21.3935C32.4542 21.154 32.6701 20.9231 32.8857 20.6909C33.4502 20.0703 33.9657 19.4179 34.4727 18.7499C34.5256 18.6804 34.5785 18.6109 34.633 18.5393C37.581 14.6484 39.8102 10.3528 41.4361 5.75752C41.5527 5.42876 41.6707 5.10046 41.7885 4.77213C42.0202 4.1258 42.2508 3.47904 42.4805 2.83197C42.1878 2.89489 41.9444 2.99128 41.6783 3.12742C41.5981 3.16816 41.5179 3.20889 41.4353 3.25086C41.3065 3.31693 41.3065 3.31693 41.1751 3.38434C40.9921 3.47706 40.8091 3.56976 40.6261 3.66243C40.3384 3.80872 40.0508 3.95526 39.7634 4.10222C39.4856 4.24407 39.2073 4.38494 38.929 4.5257C38.8008 4.59177 38.8008 4.59177 38.67 4.65918C38.2505 4.87062 37.88 5.05332 37.4023 5.07807C37.0897 4.96384 36.8849 4.87534 36.6821 4.6081C36.5987 4.31605 36.5778 4.11135 36.6211 3.80853C36.957 3.41665 37.304 3.19156 37.762 2.96003C37.8256 2.92757 37.8892 2.89511 37.9547 2.86167C38.1634 2.75552 38.3727 2.65082 38.5822 2.54625C38.7286 2.47255 38.8749 2.3988 39.0212 2.32502C39.3273 2.17095 39.6337 2.01765 39.9405 1.86483C40.3324 1.66942 40.7232 1.47173 41.1136 1.27339C41.4153 1.12057 41.7177 0.969213 42.0202 0.818251C42.1646 0.745975 42.3087 0.673205 42.4525 0.599925C42.6541 0.49743 42.8566 0.39699 43.0595 0.296987C43.2316 0.210718 43.2316 0.210718 43.4072 0.122707C43.8358 -0.0308024 44.0784 -0.0588598 44.5312 -5.90906e-05Z" fill="white"/>
<path d="M41.0661 15.7919C41.1303 15.7912 41.1945 15.7906 41.2606 15.7899C41.4728 15.788 41.6849 15.7877 41.897 15.7874C42.0445 15.7868 42.192 15.7862 42.3396 15.7855C42.6488 15.7843 42.9581 15.7839 43.2673 15.7841C43.6635 15.7841 44.0596 15.7814 44.4557 15.778C44.7604 15.7759 45.0651 15.7755 45.3698 15.7756C45.5158 15.7754 45.6619 15.7745 45.8079 15.773C46.0123 15.7711 46.2165 15.7716 46.4208 15.7728C46.5951 15.7724 46.5951 15.7724 46.773 15.772C47.1297 15.8299 47.2405 15.9308 47.4607 16.2109C47.5828 16.4551 47.5707 16.6194 47.5709 16.8928C47.5713 16.9963 47.5716 17.0999 47.5719 17.2066C47.5717 17.3786 47.5717 17.3786 47.5714 17.5541C47.5717 17.6752 47.5719 17.7963 47.5721 17.9211C47.5726 18.2584 47.5727 18.5957 47.5726 18.933C47.5726 19.2963 47.5731 19.6597 47.5736 20.023C47.5744 20.7353 47.5746 21.4476 47.5747 22.1598C47.5747 22.7386 47.5749 23.3174 47.5753 23.8962C47.5761 25.5359 47.5766 27.1756 47.5765 28.8153C47.5765 28.9037 47.5765 28.9922 47.5765 29.0833C47.5765 29.1719 47.5765 29.2605 47.5765 29.3517C47.5764 30.7875 47.5774 32.2232 47.5787 33.659C47.5801 35.132 47.5808 36.605 47.5807 38.078C47.5807 38.9054 47.581 39.7329 47.582 40.5604C47.5829 41.2648 47.5831 41.9693 47.5825 42.6738C47.5821 43.0334 47.5821 43.3931 47.583 43.7527C47.5839 44.1421 47.5833 44.5315 47.5825 44.921C47.583 45.0352 47.5835 45.1495 47.584 45.2672C47.5834 45.4233 47.5834 45.4233 47.5827 45.5825C47.5827 45.6725 47.5827 45.7624 47.5828 45.855C47.5563 46.1138 47.5047 46.267 47.3631 46.4843C47.0118 46.7185 46.8511 46.7053 46.4335 46.708C46.3693 46.7087 46.3051 46.7093 46.239 46.71C46.0268 46.7118 45.8147 46.7122 45.6026 46.7124C45.4551 46.7131 45.3075 46.7137 45.16 46.7144C44.8508 46.7156 44.5415 46.7159 44.2323 46.7158C43.8361 46.7158 43.44 46.7185 43.0439 46.7218C42.7392 46.724 42.4345 46.7244 42.1298 46.7243C41.9837 46.7245 41.8377 46.7254 41.6916 46.7269C41.4873 46.7288 41.2831 46.7282 41.0788 46.7271C40.9625 46.7273 40.8463 46.7276 40.7266 46.7279C40.3698 46.6699 40.2591 46.5691 40.0389 46.289C39.9167 46.0448 39.9288 45.8805 39.9286 45.6071C39.9283 45.5035 39.928 45.4 39.9277 45.2933C39.9278 45.1786 39.928 45.0639 39.9281 44.9458C39.9279 44.8247 39.9277 44.7035 39.9275 44.5787C39.927 44.2414 39.9269 43.9042 39.927 43.5669C39.927 43.2035 39.9265 42.8402 39.926 42.4769C39.9252 41.7646 39.9249 41.0523 39.9249 40.3401C39.9248 39.7613 39.9246 39.1825 39.9243 38.6037C39.9235 36.964 39.923 35.3243 39.9231 33.6846C39.9231 33.5962 39.9231 33.5077 39.9231 33.4165C39.9231 33.328 39.9231 33.2394 39.9231 33.1481C39.9231 31.7124 39.9222 30.2767 39.9208 28.8409C39.9194 27.3679 39.9188 25.8949 39.9188 24.4219C39.9189 23.5944 39.9186 22.767 39.9176 21.9395C39.9167 21.235 39.9165 20.5305 39.9171 19.826C39.9174 19.4664 39.9174 19.1068 39.9166 18.7472C39.9157 18.3578 39.9163 17.9683 39.917 17.5789C39.9165 17.4647 39.916 17.3504 39.9155 17.2327C39.916 17.1286 39.9164 17.0246 39.9169 16.9173C39.9169 16.8274 39.9168 16.7375 39.9168 16.6448C39.9432 16.3861 39.9949 16.2329 40.1365 16.0156C40.4877 15.7814 40.6484 15.7946 41.0661 15.7919ZM41.699 17.5781C41.699 26.6015 41.699 35.6249 41.699 44.9218C43.0525 44.9218 44.406 44.9218 45.8006 44.9218C45.8006 35.8984 45.8006 26.8749 45.8006 17.5781C44.4471 17.5781 43.0935 17.5781 41.699 17.5781Z" fill="white"/>
<path d="M0 48.2422C16.5 48.2422 33 48.2422 50 48.2422C50 48.8223 50 49.4023 50 50C33.5 50 17 50 0 50C0 49.4199 0 48.8398 0 48.2422Z" fill="white"/>
<path d="M32.0447 27.4257C32.1682 27.4247 32.2917 27.4238 32.419 27.4228C32.554 27.4224 32.689 27.4219 32.824 27.4216C32.9626 27.421 33.1011 27.4204 33.2397 27.4199C33.5301 27.4189 33.8205 27.4183 34.111 27.4179C34.4826 27.4174 34.8542 27.4151 35.2258 27.4123C35.512 27.4105 35.7982 27.41 36.0844 27.4098C36.2213 27.4095 36.3583 27.4087 36.4953 27.4074C36.6871 27.4058 36.879 27.4061 37.0709 27.4066C37.18 27.4062 37.289 27.4059 37.4014 27.4055C37.7358 27.4463 37.9153 27.5336 38.1837 27.7344C38.4184 28.0864 38.4064 28.3393 38.4038 28.7458C38.4041 28.8196 38.4044 28.8933 38.4047 28.9693C38.4055 29.2172 38.4049 29.465 38.4043 29.7128C38.4045 29.8902 38.4049 30.0676 38.4053 30.245C38.4062 30.7275 38.4059 31.2099 38.4052 31.6923C38.4047 32.1967 38.4052 32.701 38.4055 33.2053C38.4059 34.0525 38.4054 34.8996 38.4045 35.7468C38.4034 36.7267 38.4037 37.7066 38.4048 38.6865C38.4057 39.5272 38.4058 40.3678 38.4053 41.2085C38.405 41.7108 38.405 42.2132 38.4056 42.7156C38.4062 43.1879 38.4058 43.6603 38.4047 44.1326C38.4044 44.3062 38.4045 44.4797 38.4049 44.6532C38.4054 44.8898 38.4048 45.1263 38.4038 45.3629C38.4042 45.4318 38.4047 45.5008 38.4051 45.5718C38.4023 45.9231 38.3897 46.1929 38.1837 46.4844C37.8325 46.7185 37.6718 46.7054 37.2541 46.7081C37.1899 46.7087 37.1257 46.7094 37.0596 46.71C36.8474 46.7119 36.6353 46.7123 36.4232 46.7125C36.2757 46.7131 36.1281 46.7138 35.9806 46.7145C35.6714 46.7156 35.3621 46.716 35.0529 46.7159C34.6567 46.7159 34.2606 46.7185 33.8645 46.7219C33.5598 46.7241 33.2551 46.7245 32.9504 46.7244C32.8043 46.7246 32.6583 46.7254 32.5123 46.727C32.3079 46.7289 32.1037 46.7283 31.8994 46.7271C31.7832 46.7274 31.6669 46.7277 31.5472 46.728C31.1889 46.6697 31.0772 46.5742 30.8595 46.2891C30.7457 45.9478 30.7473 45.6414 30.7474 45.2864C30.7471 45.2135 30.7467 45.1407 30.7464 45.0657C30.7453 44.821 30.7449 44.5763 30.7445 44.3316C30.7439 44.1565 30.7433 43.9813 30.7426 43.8061C30.7409 43.3298 30.7399 42.8534 30.739 42.377C30.7385 42.0794 30.738 41.7819 30.7373 41.4843C30.7355 40.5536 30.7341 39.6229 30.7333 38.6921C30.7323 37.6173 30.7297 36.5425 30.7258 35.4677C30.7229 34.6372 30.7214 33.8067 30.7211 32.9761C30.7209 32.48 30.72 31.9838 30.7175 31.4876C30.7153 31.0209 30.7148 30.5542 30.7158 30.0874C30.7159 29.9162 30.7153 29.7449 30.7139 29.5737C30.7122 29.3397 30.7129 29.1059 30.7142 28.8719C30.7131 28.8043 30.712 28.7367 30.7109 28.667C30.7173 28.1857 30.8458 27.9065 31.1524 27.5391C31.4717 27.4326 31.7086 27.4277 32.0447 27.4257ZM32.5196 29.1992C32.5196 34.3877 32.5196 39.5762 32.5196 44.9219C33.8731 44.9219 35.2267 44.9219 36.6212 44.9219C36.6212 39.7334 36.6212 34.5449 36.6212 29.1992C35.2677 29.1992 33.9142 29.1992 32.5196 29.1992Z" fill="white"/>
<path d="M22.8052 33.2597C22.8683 33.2589 22.9314 33.2581 22.9964 33.2572C23.2043 33.2549 23.4122 33.2548 23.6202 33.255C23.7652 33.2543 23.9102 33.2535 24.0551 33.2527C24.3588 33.2514 24.6624 33.2512 24.9661 33.2518C25.3547 33.2524 25.7432 33.2494 26.1318 33.2454C26.4311 33.2429 26.7304 33.2426 27.0298 33.243C27.173 33.2428 27.3163 33.2419 27.4595 33.2401C27.6601 33.238 27.8605 33.2389 28.0611 33.2406C28.175 33.2404 28.289 33.2402 28.4064 33.24C28.7109 33.3007 28.7109 33.3007 28.9917 33.4745C29.3101 33.9572 29.2673 34.4088 29.2624 34.9752C29.2633 35.0954 29.2641 35.2157 29.265 35.3396C29.2668 35.6687 29.2664 35.9977 29.2648 36.3268C29.2636 36.6716 29.2647 37.0164 29.2655 37.3611C29.2664 37.9401 29.2652 38.519 29.2629 39.0979C29.2602 39.7667 29.2611 40.4355 29.2638 41.1044C29.266 41.6791 29.2663 42.2539 29.265 42.8286C29.2643 43.1717 29.2641 43.5147 29.2658 43.8578C29.2674 44.2403 29.2651 44.6227 29.2624 45.0052C29.2639 45.1753 29.2639 45.1753 29.2654 45.349C29.2554 46.106 29.2554 46.106 28.9923 46.5058C28.6517 46.7163 28.4514 46.7409 28.0521 46.7413C27.9558 46.7423 27.9558 46.7423 27.8575 46.7434C27.6464 46.745 27.4355 46.7431 27.2243 46.7411C27.0771 46.7411 26.9298 46.7414 26.7826 46.7418C26.4745 46.742 26.1665 46.7406 25.8584 46.7379C25.4637 46.7346 25.0692 46.7352 24.6746 46.737C24.3707 46.7381 24.0669 46.7372 23.763 46.7357C23.6175 46.7352 23.472 46.7353 23.3265 46.7359C23.1231 46.7364 22.9199 46.7344 22.7165 46.7317C22.6009 46.7311 22.4852 46.7305 22.3661 46.7299C22.0078 46.669 21.8945 46.5778 21.6797 46.289C21.5826 45.9914 21.5696 45.7179 21.569 45.4061C21.5686 45.3068 21.5681 45.2076 21.5677 45.1053C21.5678 44.997 21.5678 44.8887 21.5678 44.7771C21.5675 44.6626 21.5672 44.548 21.5668 44.43C21.5661 44.1163 21.5658 43.8025 21.5657 43.4888C21.5656 43.2927 21.5654 43.0966 21.5652 42.9005C21.5643 42.216 21.5639 41.5316 21.5639 40.8472C21.564 40.2096 21.563 39.572 21.5614 38.9344C21.5601 38.3866 21.5596 37.8388 21.5597 37.291C21.5597 36.964 21.5594 36.637 21.5584 36.31C21.5574 35.9453 21.5577 35.5806 21.5583 35.2159C21.5578 35.1078 21.5572 34.9997 21.5566 34.8883C21.5571 34.7887 21.5575 34.6892 21.5579 34.5867C21.5578 34.5005 21.5578 34.4143 21.5577 34.3255C21.5941 33.9611 21.6901 33.6844 21.945 33.4193C22.2431 33.2608 22.468 33.2622 22.8052 33.2597ZM23.3398 35.0585C23.3398 38.3134 23.3398 41.5683 23.3398 44.9218C24.6934 44.9218 26.0469 44.9218 27.4414 44.9218C27.4414 41.6669 27.4414 38.4121 27.4414 35.0585C26.0879 35.0585 24.7344 35.0585 23.3398 35.0585Z" fill="white"/>
<path d="M13.5367 37.4479C13.6008 37.4471 13.6648 37.4462 13.7308 37.4453C13.942 37.4431 14.153 37.4438 14.3642 37.4447C14.5113 37.4442 14.6585 37.4436 14.8056 37.4428C15.1139 37.4418 15.4221 37.4423 15.7304 37.4437C16.1249 37.4454 16.5193 37.4431 16.9138 37.4396C17.2177 37.4375 17.5215 37.4376 17.8254 37.4385C17.9708 37.4385 18.1163 37.4379 18.2617 37.4364C18.4653 37.4347 18.6687 37.4361 18.8724 37.4384C19.0459 37.4385 19.0459 37.4385 19.223 37.4386C19.6365 37.521 19.7756 37.6461 20.0195 37.9883C20.0678 38.2743 20.0864 38.5035 20.0826 38.789C20.0835 38.8683 20.0843 38.9476 20.0852 39.0293C20.0874 39.2906 20.086 39.5518 20.0843 39.8132C20.0846 39.9953 20.0851 40.1773 20.0857 40.3594C20.0864 40.7406 20.0854 41.1218 20.0831 41.503C20.0803 41.9914 20.0819 42.4796 20.0849 42.9679C20.0866 43.3438 20.0861 43.7196 20.0848 44.0954C20.0845 44.2754 20.0849 44.4555 20.086 44.6355C20.0872 44.8873 20.0854 45.1389 20.0826 45.3907C20.0841 45.502 20.0841 45.502 20.0856 45.6155C20.0782 45.9864 20.0294 46.1775 19.8119 46.4817C19.473 46.7207 19.2948 46.741 18.8829 46.7413C18.8198 46.742 18.7567 46.7427 18.6916 46.7434C18.4841 46.7451 18.2769 46.7432 18.0694 46.7411C17.9246 46.7412 17.7797 46.7414 17.6349 46.7418C17.3318 46.7421 17.0288 46.7407 16.7257 46.738C16.3379 46.7346 15.9501 46.7352 15.5623 46.7371C15.2634 46.7381 14.9645 46.7372 14.6655 46.7358C14.5226 46.7352 14.3796 46.7353 14.2366 46.7359C14.0365 46.7364 13.8366 46.7344 13.6365 46.7318C13.5228 46.7312 13.4092 46.7306 13.292 46.7299C12.9088 46.6665 12.753 46.5851 12.4999 46.2891C12.4512 46.0006 12.434 45.7683 12.4383 45.48C12.4372 45.3579 12.4372 45.3579 12.4362 45.2335C12.4345 44.9647 12.4364 44.6962 12.4385 44.4275C12.4384 44.2407 12.4382 44.0539 12.4378 43.8671C12.4375 43.4756 12.4389 43.0843 12.4416 42.6928C12.445 42.191 12.4444 41.6893 12.4425 41.1875C12.4415 40.8018 12.4424 40.4161 12.4438 40.0304C12.4444 39.8454 12.4443 39.6604 12.4437 39.4753C12.4432 39.2167 12.4452 38.9583 12.4478 38.6997C12.4472 38.6232 12.4466 38.5467 12.4459 38.4679C12.4517 38.139 12.4768 37.9261 12.6581 37.648C12.9659 37.452 13.1726 37.4498 13.5367 37.4479ZM14.2577 39.2578C14.2577 41.1269 14.2577 42.9961 14.2577 44.9219C15.579 44.9219 16.9003 44.9219 18.2616 44.9219C18.2616 43.0527 18.2616 41.1836 18.2616 39.2578C16.9404 39.2578 15.6191 39.2578 14.2577 39.2578Z" fill="white"/>
<path d="M4.50483 39.9273C4.63064 39.9266 4.75645 39.926 4.88607 39.9254C5.02406 39.9252 5.16206 39.9251 5.30005 39.9251C5.44115 39.9247 5.58225 39.9244 5.72335 39.9241C6.01939 39.9235 6.31542 39.9233 6.61145 39.9234C6.99063 39.9234 7.36979 39.922 7.74896 39.9204C8.04051 39.9193 8.33205 39.9191 8.6236 39.9191C8.76337 39.919 8.90315 39.9186 9.04293 39.9178C9.23857 39.9169 9.43423 39.9173 9.62988 39.9177C9.79684 39.9175 9.79684 39.9175 9.96718 39.9173C10.2522 39.9413 10.4096 39.9772 10.6444 40.1368C10.8663 40.4696 10.8656 40.5928 10.8697 40.9842C10.8712 41.0979 10.8728 41.2117 10.8744 41.3289C10.8749 41.4519 10.8755 41.5748 10.876 41.7016C10.8769 41.8279 10.8778 41.9542 10.8787 42.0843C10.8803 42.3518 10.881 42.6192 10.8813 42.8867C10.8818 43.2288 10.8855 43.5708 10.89 43.9128C10.8936 44.2398 10.8937 44.5667 10.8943 44.8937C10.8962 45.0163 10.8981 45.1389 10.9001 45.2652C10.8995 45.3796 10.8989 45.4939 10.8983 45.6118C10.8988 45.7122 10.8993 45.8125 10.8998 45.916C10.8158 46.3015 10.6638 46.4442 10.3515 46.6797C10.0476 46.7417 10.0476 46.7417 9.70317 46.7429C9.64006 46.7438 9.57696 46.7446 9.51194 46.7455C9.30445 46.7477 9.09717 46.7462 8.88968 46.7446C8.74485 46.7449 8.60003 46.7454 8.4552 46.746C8.15211 46.7467 7.84909 46.7457 7.546 46.7434C7.15814 46.7406 6.77045 46.7422 6.3826 46.7451C6.08367 46.7469 5.78477 46.7463 5.48584 46.7451C5.34287 46.7448 5.1999 46.7451 5.05694 46.7463C4.8568 46.7475 4.65693 46.7456 4.45681 46.7429C4.34313 46.7425 4.22946 46.7421 4.11233 46.7417C3.70929 46.6595 3.56524 46.5178 3.32022 46.1915C3.25888 45.9166 3.25888 45.9166 3.25859 45.6133C3.25737 45.4993 3.25614 45.3852 3.25488 45.2677C3.25682 45.0843 3.25682 45.0843 3.25881 44.8971C3.25857 44.7709 3.25834 44.6446 3.25809 44.5145C3.25781 44.2478 3.25924 43.9811 3.26193 43.7144C3.26526 43.373 3.26467 43.0317 3.26284 42.6902C3.26156 42.3638 3.26334 42.0375 3.26491 41.7111C3.26443 41.5886 3.26394 41.4661 3.26344 41.3399C3.26499 41.2262 3.26654 41.1124 3.26813 40.9952C3.26873 40.8952 3.26934 40.7952 3.26996 40.6922C3.33317 40.3621 3.45364 40.2482 3.71085 40.0391C3.98147 39.9038 4.202 39.9283 4.50483 39.9273ZM5.07804 41.6993C5.07804 42.7627 5.07804 43.8262 5.07804 44.9219C6.39932 44.9219 7.72061 44.9219 9.08194 44.9219C9.08194 43.8584 9.08194 42.795 9.08194 41.6993C7.76065 41.6993 6.43936 41.6993 5.07804 41.6993Z" fill="white"/>
<path d="M4.10156 8.30078C7.71094 8.30078 11.3203 8.30078 15.0391 8.30078C15.0391 8.88086 15.0391 9.46094 15.0391 10.0586C11.4297 10.0586 7.82031 10.0586 4.10156 10.0586C4.10156 9.47852 4.10156 8.89844 4.10156 8.30078Z" fill="white"/>
<path d="M4.10156 4.98047C7.71094 4.98047 11.3203 4.98047 15.0391 4.98047C15.0391 5.56055 15.0391 6.14062 15.0391 6.73828C11.4297 6.73828 7.82031 6.73828 4.10156 6.73828C4.10156 6.1582 4.10156 5.57812 4.10156 4.98047Z" fill="white"/>
<path d="M4.10156 14.9414C6.61523 14.9414 9.12891 14.9414 11.7188 14.9414C11.7188 15.5215 11.7188 16.1016 11.7188 16.6992C9.20508 16.6992 6.69141 16.6992 4.10156 16.6992C4.10156 16.1191 4.10156 15.5391 4.10156 14.9414Z" fill="white"/>
<path d="M4.10156 11.6211C6.61523 11.6211 9.12891 11.6211 11.7188 11.6211C11.7188 12.2012 11.7188 12.7812 11.7188 13.3789C9.20508 13.3789 6.69141 13.3789 4.10156 13.3789C4.10156 12.7988 4.10156 12.2188 4.10156 11.6211Z" fill="white"/>
</g>
<defs>
<clipPath id="clip0_16_30">
<rect width="50" height="50" fill="white"/>
</clipPath>
</defs>
</svg>
